<?xml version="1.0" encoding="UTF-8"?>
<svg xmlns="http://www.w3.org/2000/svg" version="1.1" viewBox="0 0 64 64">
  <!-- Generator: Adobe Illustrator 28.7.1, SVG Export Plug-In . SVG Version: 1.2.0 Build 142)  -->
  <g>
    <g id="Outline">
      <g>
        <path d="M56.69,22.27997l-9-8.63c-.12-.10999-.26001-.19-.41998-.23999l-4.62-1.26996-2.79004-4.65002c-.16998-.28003-.45001-.46002-.76996-.48999-.03003,0-.06.01996-.09003.01996v-.01996h-14v.01996c-.03003,0-.06-.01996-.09003-.01996-.31995.02997-.59998.20996-.76996.48999l-2.79004,4.65002-4.62,1.26996c-.15997.04999-.29999.13-.41998.23999l-9,8.63c-.31.29004-.39001.73999-.21997,1.13l4,9c.12.27002.35999.48004.64996.54999.29004.08002.60004.03003.84003-.14996l5.41998-3.87v27.06c0,.54999.45001,1,1,1h26c.54999,0,1-.45001,1-1v-27.06l5.41998,3.87c.23999.17999.54999.22998.84003.14996.28998-.06995.52997-.27997.64996-.54999l4-9c.17004-.39001.09003-.83997-.21997-1.13ZM40.78003,12.90997l-4,4.79004-3.24005-1.94,5.31-6.07001,1.93005,3.21997ZM36.79999,9l-4.79999,5.47998-4.79999-5.47998h9.59998ZM25.15002,9.69l5.31,6.07001-3.24005,1.94-4-4.79004,1.93005-3.21997ZM12.41998,30.46997l-3.21997-7.22998,1.89001-1.82001,3.37,7.59003-2.04004,1.45996ZM19.46002,26.10999c-.34003-.16998-.74005-.14001-1.04004.08002l-2.28998,1.63-3.5-7.87,4.88-4.68005,4.13-1.12994,4.58997,5.5c.20001.23999.48004.35999.77002.35999.17999,0,.34998-.04999.51001-.14001l3.48999-2.09003v33.23004h-11v-24c0-.37-.21002-.72003-.53998-.89001ZM44,55h-24v-2h24v2ZM45.58002,26.19c-.29999-.22003-.70001-.25-1.04004-.08002-.32996.16998-.53998.52002-.53998.89001v24h-11V17.76996l3.48999,2.09003c.16003.09003.33002.14001.51001.14001.28998,0,.57001-.12.77002-.35999l4.58997-5.5,4.13,1.12994,4.88,4.68005-3.5,7.87-2.28998-1.63ZM51.58002,30.46997l-2.04004-1.45996,3.37-7.59003,1.89001,1.82001-3.21997,7.22998Z" fill="#010101"/>
        <path d="M41,27h-5c-.55225,0-1,.44775-1,1s.44775,1,1,1h5c.55225,0,1-.44775,1-1s-.44775-1-1-1Z" fill="#010101"/>
      </g>
    </g>
  </g>
</svg>